<?xml version="1.0" standalone="no"?>
<!DOCTYPE svg PUBLIC "-//W3C//DTD SVG 20010904//EN"
 "http://www.w3.org/TR/2001/REC-SVG-20010904/DTD/svg10.dtd">
<svg version="1.0" xmlns="http://www.w3.org/2000/svg"
 width="225.000000pt" height="225.000000pt" viewBox="0 0 225.000000 225.000000"
 preserveAspectRatio="xMidYMid meet">

<g transform="translate(0.000000,225.000000) scale(0.100000,-0.100000)"
fill="#B931FC" stroke="none">
<path d="M1855 2050 c-16 -5 -61 -41 -100 -80 l-70 -70 108 -107 107 -108 70
70 c76 75 97 120 84 178 -19 89 -112 144 -199 117z"/>
<path d="M320 1793 c-65 -35 -106 -91 -120 -162 -12 -65 -13 -1186 -1 -1250
12 -59 56 -119 116 -156 l48 -30 604 -3 c392 -2 624 1 661 8 74 13 130 54 165
120 l27 52 0 505 0 505 -75 -74 -74 -75 -3 -422 -3 -423 -24 -19 c-22 -18 -48
-19 -633 -19 l-609 0 -24 25 -25 24 0 481 0 480 286 0 286 0 231 230 232 230
-507 0 -506 0 -52 -27z"/>
<path d="M1298 1512 l-277 -277 -25 -130 c-13 -71 -23 -131 -23 -132 1 0 61
10 133 24 l131 25 276 276 277 277 -108 108 -107 107 -277 -278z"/>
</g>
</svg>
